<?xml version="1.0" encoding="UTF-8"?>
<svg id="Layer_1" data-name="Layer 1" xmlns="http://www.w3.org/2000/svg" viewBox="0 0 1694.65 2007.73">
  <defs>
    <style>
      .cls-1 {
        fill: #fcc464;
      }

      .cls-2 {
        fill: #068b90;
      }
    </style>
  </defs>
  <g>
    <path class="cls-2" d="M314.93,1647.93v24.69h-4.51c-24.92,0-35.13-8.54-37.5-31.81l-15.9,22.07c-8.78,4.75-38.22,2.14-46.76-1.66,0,0-12.34-17.57-12.34-32.99,0-19.46,9.73-33.23,31.33-45.57l41.78-18.75v-12.11l22.79-7.12v77.86c0,19.23,4.75,25.4,21.13,25.4ZM271.01,1583.13l-36.08,15.9c-14.72,8.07-20.41,14.95-20.41,24.45,0,7.12,7.12,17.33,7.12,17.33,0,0,23.74,1.19,34.18-3.09,3.32-.71,14.72-13.06,15.19-23.02v-31.57ZM239.45,1498.39l14,13.53-14,14-13.53-14,13.53-13.53ZM273.15,1498.39l14,13.53-14,14-13.53-14,13.53-13.53Z"/>
    <path class="cls-2" d="M384.24,1672.62c-18.28,0-32.04-7.83-35.6-23.97l-12.58,23.97h-22.55v-24.69h26.58c1.19-5.7,4.51-18.28,4.51-30.86v-17.09l21.12-5.7v30.38c0,14.72,6.17,21.84,19.7,23.02l14.24.24v24.69h-15.43ZM355.28,1708.22l-14,14-13.53-14,13.53-13.77,14,13.77ZM388.75,1708.22l-14,14-13.53-14,13.53-13.77,14,13.77Z"/>
    <path class="cls-2" d="M519.06,1647.93l17.8-.24v24.92h-18.04c-19.23,0-35.13-2.85-49.13-9.02-14.72,5.46-32.04,9.02-50.56,9.02h-24.45l.24-24.92,21.36.24c10.21,0,21.36-1.19,27.3-2.37-7.6-5.22-16.38-16.14-24.92-31.33l-9.26-13.53,4.04-18.28c18.04-4.98,38.22-8.54,56.73-8.54,34.89,0,53.65,22.08,53.65,22.08,0,0-12.11,43.2-32.28,49.61,5.46,1.19,18.99,2.37,27.53,2.37ZM506.96,1607.34s-14.48-11.16-35.37-11.87c-11.16-.24-24.21.95-40.35,5.7l9.02,10.92c10.68,16.14,19.7,25.87,31.57,30.86,25.87-7.83,35.13-35.6,35.13-35.6Z"/>
    <path class="cls-2" d="M658.63,1630.6c0,26.11-16.62,44.62-46.05,44.62-18.04,0-34.18-10.44-44.39-24.69l-11.39,22.08h-22.08v-24.69h13.29c12.11-9.5,15.19-22.79,22.31-39.64,9.49-22.08,23.74-32.76,42.96-32.28l33.47.24,11.63,11.63.24,42.73ZM642.73,1628.47c-.95-8.31-2.14-26.82-3.32-27.3-1.19-.71-17.33-1.42-25.16-1.42-16.62,0-23.97,6.65-36.55,34.42,11.87,10.68,24.69,15.9,37.27,15.9,16.14,0,25.87-7.6,27.77-21.6Z"/>
    <path class="cls-2" d="M734.12,1647.93v24.69h-8.07c-24.69,0-37.03-4.27-37.03-4.27,0,0-4.27-26.82-4.27-46.76l-.24-108.71,22.79-3.56v103.02c0,9.97.71,33.94.71,33.94,0,0,15.43,1.66,26.11,1.66Z"/>
    <path class="cls-2" d="M896.24,1647.69v24.92h-5.7c-22.55,0-36.55-8.31-42.25-31.09l-1.19-8.54c-4.99,2.61-8.31,4.98-30.62,18.04-21.36,15.67-37.03,21.6-58.39,21.6h-28.96v-24.92h22.31c16.14,0,26.82-1.9,44.39-9.97,26.58-12.11,32.04-14.95,46.52-20.41-5.22-.95-18.99-4.75-29.43-8.78l-24.92-9.02c-9.02-3.56-30.62-9.26-42.01-7.36l-2.61-4.75,13.06-18.75c16.85.24,43.2,6.88,56.26,11.87,37.5,16.38,44.62,18.28,67.17,19.23l2.61,3.56-1.19,18.04-15.9,1.9v8.07c1.42,13.53,10.92,16.38,30.86,16.38ZM811.5,1690.66l14,13.53-14,14.24-13.53-14.24,13.53-13.53Z"/>
    <path class="cls-2" d="M894.34,1652.92l.95-4.98c11.63.71,25.16-2.61,25.16-2.61,0,0,.71-14.95.71-23.74l.24-124.85,20.65-4.99,1.9,1.66-.24,128.18c0,18.28-5.22,44.62-5.22,44.62,0,0-19.7,6.41-36.08,6.41h-6.65l-1.42-19.7Z"/>
    <path class="cls-2" d="M975.04,1672.62v-176.84l23.02-4.75v181.58h-23.02Z"/>
    <path class="cls-2" d="M1186.3,1647.93v24.69h-4.51c-24.92,0-35.13-8.54-37.5-31.81l-15.9,22.07c-8.78,4.75-38.22,2.14-46.76-1.66,0,0-12.34-17.57-12.34-32.99,0-19.46,9.73-33.23,31.33-45.57l41.78-18.75v-12.11l22.79-7.12v77.86c0,19.23,4.75,25.4,21.12,25.4ZM1142.39,1583.13l-36.08,15.9c-14.72,8.07-20.41,14.95-20.41,24.45,0,7.12,7.12,17.33,7.12,17.33,0,0,23.74,1.19,34.18-3.09,3.32-.71,14.72-13.06,15.19-23.02v-31.57ZM1110.81,1498.39l14,13.53-14,14-13.53-14,13.53-13.53ZM1144.52,1498.39l14,13.53-14,14-13.53-14,13.53-13.53Z"/>
    <path class="cls-2" d="M1289.55,1611.38c0,29.91-15.67,53.64-15.67,53.64,0,0-21.36,7.83-42.01,7.83h-50.56v-24.69c23.74,0,62.66,0,84.03-1.9,1.19,0,7.36-12.34,8.31-21.84-9.02,2.85-22.08,4.27-35.13,4.27-33.23,0-45.34-39.4-45.34-39.4,0,0,16.38-51.98,46.76-51.98,28.72,0,49.61,28.25,49.61,74.06ZM1270.32,1607.11c-1.19-22.31-12.11-46.52-33.47-46.52-14.72,0-27.53,27.3-27.53,27.3,0,0,10.21,21.84,29.91,21.84,11.39,0,22.55-1.19,31.09-2.61ZM1255.37,1504.09l-14.24,14.24-13.77-14.24,13.77-13.53,14.24,13.53Z"/>
    <path class="cls-2" d="M1364.32,1647.93v24.69h-8.07c-24.69,0-37.03-4.27-37.03-4.27,0,0-4.27-26.82-4.27-46.76l-.24-108.71,22.79-3.56v103.02c0,9.97.71,33.94.71,33.94,0,0,15.43,1.66,26.11,1.66Z"/>
    <path class="cls-2" d="M1481.58,1672.62h-14c-17.09,0-32.52-4.27-45.81-10.68l-12.58,9.26c-9.26,2.37-39.4,1.42-46.52,1.42l-.47-24.69c19.94,0,32.99.24,38.45-.95-11.63-5.46-24.92-36.55-24.92-36.55,0,0,12.34-47.24,48.42-47.24s47.24,47.47,47.24,47.47c0,0-8.31,27.53-23.97,35.84,6.17,1.19,18.04,1.42,34.18,1.42v24.69ZM1402.06,1516.19l14,13.29-14,14.24-13.53-14.24,13.53-13.29ZM1454.76,1615.65s-10.92-29.43-31.81-29.2c-20.65,0-30.15,28.72-30.15,28.72,0,0,11.63,23.5,32.28,28.72,19.46-5.22,29.67-28.25,29.67-28.25ZM1437.43,1516.19l14,13.29-14,14.24-13.53-14.24,13.53-13.29Z"/>
    <path class="cls-2" d="M1544.72,1672.62c-18.51,0-32.04-7.83-35.61-23.97l-12.82,23.97h-22.31v-24.69h26.58c1.19-5.7,4.51-18.28,4.51-30.86v-17.09l21.13-5.7v30.38c0,15.19,6.65,22.55,20.65,23.02l17.57.24v24.69h-19.7ZM1516.71,1561.29l-14,14-13.53-14,13.53-13.77,14,13.77ZM1533.56,1534.71l-14,14-13.53-14,13.53-13.53,14,13.53ZM1551.6,1561.29l-14,14-13.53-14,13.53-13.77,14,13.77Z"/>
    <path class="cls-2" d="M1637.29,1647.93v24.69h-4.75c-21.84,0-34.18-9.02-37.27-25.64l-14,25.4-18.99.24v-24.69h18.75c0,.95,9.73-15.19,9.73-24.69v-125.33l22.79-7.36v133.64c0,18.04,6.17,23.74,23.74,23.74Z"/>
    <path class="cls-2" d="M1636.11,1652.92l.95-4.98c11.63.71,25.16-2.61,25.16-2.61,0,0,.71-14.95.71-23.74l.24-124.85,20.65-4.99,1.9,1.66-.24,128.18c0,18.28-5.22,44.62-5.22,44.62,0,0-19.7,6.41-36.08,6.41h-6.65l-1.42-19.7Z"/>
    <path class="cls-2" d="M324.18,1979.72s-29.2,14.48-53.41,14.48c-45.57,0-68.6-22.55-68.6-63.14,0-6.65,1.19-13.53,2.85-20.41,6.65-6.65,10.44-10.21,17.33-16.62h5.46c-2.37,10.68-4.27,21.6-4.27,31.57-.24,28.25,15.43,43.2,47.71,43.2,17.09,0,43.2-6.65,43.2-6.65,0,0,7.36-21.12,7.36-34.18v-152.63l22.79-7.12v132.92c0,17.57,6.41,23.5,22.31,23.5v24.69l-4.99-.24c-13.05,0-24.21-6.65-26.82-12.11-.71,16.62-5.22,31.57-10.92,42.73Z"/>
    <path class="cls-2" d="M365.25,1924.65h30.15v24.69h-30.15v-24.69Z"/>
    <path class="cls-2" d="M393.26,1924.65h30.15v24.69h-30.15v-24.69Z"/>
    <path class="cls-2" d="M421.27,1924.65h30.15v24.69h-30.15v-24.69Z"/>
    <path class="cls-2" d="M449.28,1924.65h30.15v24.69h-30.15v-24.69Z"/>
    <path class="cls-2" d="M477.29,1924.65h30.15v24.69h-30.15v-24.69Z"/>
    <path class="cls-2" d="M659.58,1924.65v24.69h-4.04c-17.57,0-27.77-7.83-35.13-25.64l-12.11,27.77h-27.77c-22.08,0-36.79-14-39.88-31.33l-11.16,29.2h-24.69v-24.69c15.43,0,20.65-1.19,26.35-15.43l9.02-24.92c8.54-21.13,24.45-31.81,43.2-31.33l28.72.24,23.26,52.22c2.85,7.36,5.7,12.11,8.78,14.95,4.04,3.32,8.54,4.27,15.43,4.27ZM604.04,1876.71l-21.36-.24c-17.33.24-28.48,15.67-31.09,28.25,3.32,13.29,15.9,21.6,31.81,22.31h21.36l11.16-15.67-11.87-34.66Z"/>
    <path class="cls-2" d="M777.79,1924.65l17.8-.24v24.92h-18.04c-19.23,0-35.13-2.85-49.13-9.02-14.72,5.46-32.04,9.02-50.56,9.02h-24.45l.24-24.92,21.36.24c10.21,0,21.36-1.19,27.3-2.37-7.6-5.22-16.38-16.14-24.92-31.33l-9.26-13.53,4.04-18.28c18.04-4.98,38.22-8.54,56.73-8.54,34.89,0,53.64,22.08,53.64,22.08,0,0-12.11,43.2-32.28,49.61,5.46,1.19,18.99,2.37,27.53,2.37ZM765.68,1884.06s-14.48-11.16-35.37-11.87c-11.16-.24-24.21.95-40.35,5.7l9.02,10.92c10.68,16.14,19.7,25.87,31.57,30.86,25.87-7.83,35.13-35.6,35.13-35.6Z"/>
    <path class="cls-2" d="M794.64,1929.64l.95-4.98c11.63.71,25.16-2.61,25.16-2.61,0,0,.71-14.95.71-23.74l.24-124.85,20.65-4.99,1.9,1.66-.24,128.18c0,18.28-5.22,44.62-5.22,44.62,0,0-19.7,6.41-36.08,6.41h-6.65l-1.42-19.7Z"/>
    <path class="cls-2" d="M876.3,1949.34v-176.84l23.02-4.75v181.58h-23.02Z"/>
    <path class="cls-2" d="M991.89,1951.95c-1.19-9.5-1.19-19.7,0-30.62l18.04-17.57h4.75c-2.14,11.39-3.8,22.08-3.8,31.33.24,31.33,19.7,48.19,60.29,48.19,20.41,0,46.76-8.78,46.76-8.78,0,0,7.83-17.33,9.5-28.01-8.78,2.37-20.18,3.56-30.86,3.56-35.13,0-46.76-42.25-46.76-42.25,0,0,16.14-54.59,47-54.59,28.96,0,47.95,28.01,47.95,75.24,0,27.77-17.09,65.28-17.09,65.28,0,0-33.47,14-59.82,14-45.57,0-71.68-20.18-75.96-55.78ZM1125.77,1924.42c-2.14-24.69-10.44-46.76-32.76-46.76-16.14,0-27.3,27.53-27.3,27.53,0,0,9.97,22.08,30.15,22.08,10.68,0,21.6-1.19,29.91-2.85ZM1080.91,1834.93l14.24-14.24-14.24-13.53-13.53,13.53,13.53,14.24ZM1109.86,1834.93l14-14.24-14-13.53-13.53,13.53,13.53,14.24Z"/>
    <path class="cls-2" d="M1275.07,1924.65v24.69h-12.58c-4.75,38.93-24.92,58.15-59.1,56.49-7.83,0-13.77-1.42-18.75-2.85l-15.19-20.18,2.37-3.8c10.68,2.85,19.7,4.27,29.91,4.27,27.53,0,42.01-9.97,45.81-35.13l-28.72,2.61c-44.39,2.37-54.12-42.25-54.12-42.25,0,0,16.14-55.54,49.61-55.54,35.61,0,48.9,39.4,48.9,71.68h11.87ZM1211.69,1874.81c-18.51,0-30.86,30.62-29.2,32.99,2.61,0,11.16,18.51,34.18,18.51h26.35c4.51-23.5-8.78-51.51-31.33-51.51Z"/>
    <path class="cls-2" d="M1272.94,1924.65h30.15v24.69h-30.15v-24.69Z"/>
    <path class="cls-2" d="M1300.94,1924.65h30.15v24.69h-30.15v-24.69Z"/>
    <path class="cls-2" d="M1328.95,1924.65h30.15v24.69h-30.15v-24.69Z"/>
    <path class="cls-2" d="M1356.96,1924.65h30.15v24.69h-30.15v-24.69Z"/>
    <path class="cls-2" d="M1384.97,1924.65h30.15v24.69h-30.15v-24.69Z"/>
    <path class="cls-2" d="M1573.2,1909.22c-.71,15.43-6.88,31.33-9.5,35.61,0,0-17.56,7.12-27.77,7.12-16.38,0-30.15-8.07-33.47-23.02l-14.24,23.02h-14c-16.85,0-28.01-8.78-31.09-24.69l-14.95,22.08h-18.99l-.48-24.69,21.6-.24c4.04-4.51,8.78-14.24,8.54-22.79v-9.02l21.36-6.41v15.43c0,17.33,5.46,25.16,18.51,25.16l9.97-1.19,4.51-9.73c2.37-5.46,3.32-9.49,3.32-14.48v-8.54l21.36-6.65v15.43c0,17.33,6.88,25.16,18.28,25.16,4.98,0,13.53-3.32,13.53-3.32,0,0,3.32-11.16,3.08-21.6-.24-9.02-1.42-15.67-4.04-25.64l21.84-7.12c2.14,15.43,3.09,28.96,2.61,40.11Z"/>
    <path class="cls-2" d="M1632.31,2005.59c-6.17,0-12.82-.71-17.56-1.9l-16.62-18.75v-5.93c10.68,2.85,22.55,4.27,32.52,4.27,27.77,0,42.25-9.97,45.81-35.84-5.93,1.66-19.46,4.51-28.25,4.75-42.01,2.37-54.12-44.15-54.12-44.15,0,0,18.99-55.07,49.13-55.07,17.09,0,31.09,9.97,39.64,28.01,10.92,20.41,14.24,69.79.47,96.61-8.07,18.04-27.53,29.43-51.03,28.01ZM1671.95,1925.37c2.85-32.28-11.63-50.32-31.33-50.32-17.33,0-30.38,29.91-29.2,32.52,4.27.24,23.5,28.72,60.53,17.8Z"/>
  </g>
  <path class="cls-2" d="M691.03,763.71v314.98c0,75.39-29.39,151.42-29.39,151.42-21.08,8.3-95.2,29.39-260.67,24.92-93.28-2.56-169.31-19.17-182.08-90.72-12.78-25.56-17.25-58.14-14.7-94.56l58.78-46h14.7c-4.47,18.53-7.03,37.69-7.03,56.22,0,88.81,80.5,91.36,190.39,91.36,86.89,0,147.59-12.78,147.59-12.78,0,0,6.39-44.72,6.39-83.06v-288.15l76.03-23.64ZM378.61,1056.33v-42.81l39.61-5.75c-21.08-5.75-28.11-40.89-28.11-40.89,0,0,17.25-66.45,67.72-66.45,21.09,0,38.33,9.58,49.2,23.64l-14.7,35.78-3.83.64c-3.83-11.5-15.97-17.25-30.67-17.25-24.28,0-33.86,26.2-33.86,26.2,0,0,10.86,31.94,49.2,30.03l55.58-6.39v42.17l-150.14,21.08Z"/>
  <path class="cls-2" d="M889.72,1003.94c12.78,57.5,19.81,121.39,19.81,179.53,0,81.14-12.14,203.17-130.34,216.59-12.78.64-18.53.64-28.75-.64l-24.92-55.58,7.03-10.22c10.86,1.28,19.81,1.92,28.11,1.92,65.81-5.75,80.5-86.25,80.5-149.5,0-56.86-7.67-100.31-23.64-168.67l69-15.33,3.19,1.92Z"/>
  <path class="cls-2" d="M1284.56,1166.86v81.78h-15.97c-37.05,0-61.33-10.86-82.42-43.44l-35.78,41.53c-68.36,20.45-176.97-.64-183.36-3.19v-78.59c15.34,4.47,100.31,22.36,166.12,4.47l24.92-19.17-69-189.75,71.56-37.7,74.75,208.28c10.86,26.83,24.92,35.78,49.2,35.78Z"/>
  <path class="cls-2" d="M1277.53,1167.5h84.33v81.14h-84.33v-81.14Z"/>
  <path class="cls-2" d="M1525.43,915.77l14.05-39.61c37.06,0,70.92-3.83,69.64-13.42-33.86-4.47-47.92-44.72-47.92-44.72,0,0,23-51.11,51.11-51.11s51.11,25.56,51.11,62.61c0,57.5-48.56,86.25-138,86.25ZM1634.04,844.86c.64-2.56,1.28-5.11,1.28-7.67,0-18.53-11.5-30.67-26.19-30.67-11.5,0-19.17,17.25-19.17,17.25,0,0,14.7,19.81,44.09,21.08Z"/>
  <path class="cls-2" d="M1692.82,1130.44c0,71.56-46,125.22-128.42,125.22-49.84,0-95.2-30.67-119.48-69l-33.22,61.97h-56.86v-81.78h29.39c36.42-20.44,44.72-60.7,63.89-104.14,25.56-58.14,65.81-86.25,118.83-84.33l90.09.64,35.14,35.78.64,115.64ZM1642.99,1122.78c-3.83-19.17-8.31-60.06-12.14-61.97-4.47-2.56-41.53-4.47-60.06-4.47-42.8,0-64.53,15.97-95.19,78.58,30.67,25.56,65.17,37.7,97.11,37.7,38.97,0,63.25-17.25,70.28-49.83Z"/>
  <path class="cls-2" d="M645.58,423.66h-182.12l28.24,61.26h24.76c42.92,0,60.71,15.41,60.71,31.36s-22.38,54.29-22.38,54.29c0,0-79.78,4.95-141.22,5.5-4.77.18-9.35.18-13.94.18-22.93,0-43.47-1.83-61.07-5.87-8.99,11.74-17.97,24.03-27.14,36.5-5.69,7.7-11.19,15.77-16.51,24.03,21.64,7.15,46.77,11.55,75.19,13.02,7.89.55,15.96.73,24.39.73,72.26,0,186.52-19.07,186.52-19.07,0,0,45.48-65.29,45.48-94.64,0-18.52-7.7-31.91-20.54-40.9h39.61v-66.39Z"/>
  <path class="cls-2" d="M338.56,570.38c-8.99,11.74-17.97,24.03-27.14,36.5-5.69,7.7-11.19,15.77-16.51,24.03-34.85-11.74-61.07-30.63-78.31-57.04-10.82-16.32-18.16-35.58-22.01-57.77-2.2-12.65-3.3-26.23-3.3-40.72,0-11.55.73-23.11,3.3-34.48l49.15-47.32,12.84,6.42c-5.87,24.94-7.7,42.18-7.7,63.27,0,5.5.18,10.82.73,15.77,2.2,22.01,9.35,39.98,21.09,54.47,15.22,18.16,37.78,30.26,67.86,36.86Z"/>
  <path class="cls-1" d="M452.82,435.77c6.24-14.86,9.35-24.03,9.35-27.14,0-17.42-7.7-26.23-23.29-26.23-4.77,0-19.99,5.87-45.67,17.61-25.68,11.74-54.65,26.78-87.12,44.93-18.52,10.45-37.23,21.83-56.49,34.11,2.2,22.01,9.35,39.98,21.09,54.47,22.19-15.59,46.77-31.91,73.54-48.79,45.67-28.61,71.71-42.73,77.95-42.73,3.3,0,5.87.55,7.89,2.02,2.02,1.47,3.12,3.67,3.12,6.42,0,4.59-13.39,22.19-40.17,53.19-17.97,20.54-36.13,42.92-54.47,66.76-8.99,11.74-17.97,24.03-27.14,36.5-5.69,7.7-11.19,15.77-16.51,24.03-21.83,32.65-42.73,70.24-62.54,112.43-49.89,5.69-105.64,10.45-167.08,14.3,17.42-36.5,39.43-70.43,65.84-101.42,25.31-29.71,53.74-57.04,85.47-82.35-10.82-16.32-18.16-35.58-22.01-57.77-30.63,21.83-57.04,43.28-79.41,64.37-23.11,21.83-43.65,45.3-61.62,70.24-17.97,24.94-31.36,46.77-40.17,65.47-8.99,18.71-13.39,31.55-13.39,38.52,0,8.25,2.38,20.91,7.15,38.15,4.77,17.06,9.72,30.44,15.22,39.98,5.69,8.44,13.94,14.49,24.94,17.61,11,3.12,26.23,4.77,45.48,4.77,8.25,0,23.48-1.28,45.67-3.85,22.19-2.57,39.8-3.85,52.82-3.85-9.72,36.5-14.67,74.09-14.67,112.79,0,22.93,7.52,34.3,22.38,34.3,7.34,0,22.37-7.52,44.93-22.74,22.74-15.22,34.11-26.59,34.11-33.93,0-8.25-4.4-16.32-12.84-24.21,3.12-30.08,9.35-57.41,18.52-81.8l100.5-21.46c29.71-38.15,44.75-64.56,44.75-79.05,0-11.19-7.15-16.69-21.46-16.69-5.14,0-32.65,4.22-82.9,12.84,8.25-18.71,16.14-34.66,23.66-47.68,5.87-10.27,13.21-22.19,21.83-35.95,2.2-3.48,4.4-6.97,6.79-10.64,11.55-18.16,20.72-32.28,27.51-42.73,2.57-4.03,5.69-8.8,9.17-14.49,5.87-8.99,13.02-20.36,21.46-33.75,6.42-9.72,12.1-18.52,17.06-26.41,4.77-7.7,8.8-16.14,11.55-24.94,2.93-8.99,4.4-18.71,4.4-29.53,0-7.7-5.14-16.14-15.22-25.68Z"/>
  <path class="cls-2" d="M961.84,490.04h-37.69c-46,0-87.54-11.5-123.31-28.75l-33.86,24.91c-24.91,6.39-106.06,3.83-125.22,3.83l-1.28-66.45c53.67,0,88.81.64,103.5-2.54-31.31-14.7-67.08-98.4-67.08-98.4,0,0,33.21-127.14,130.33-127.14s127.14,127.78,127.14,127.78c0,0-22.36,74.11-64.53,96.47,16.61,3.21,48.56,3.83,92.01,3.83v66.45ZM747.81,69l37.69,35.79-37.69,38.33-36.42-38.33,36.42-35.79ZM889.64,336.71s-29.39-79.23-85.61-78.59c-55.59,0-81.14,77.32-81.14,77.32,0,0,31.31,63.24,86.89,77.3,52.39-14.06,79.86-76.03,79.86-76.03ZM843,69l37.69,35.79-37.69,38.33-36.42-38.33,36.42-35.79Z"/>
  <path class="cls-2" d="M1131.78,490.04c-49.84,0-86.25-21.08-95.84-64.53l-34.5,64.53h-60.05v-66.45h71.55c3.2-15.33,12.14-49.18,12.14-83.05v-45.99l56.86-15.34v81.79c0,39.6,16.61,58.76,53.03,61.97l38.33.63v66.45h-41.53ZM1053.84,191.03l-37.69,37.69-36.42-37.69,36.42-36.41,37.69,36.41ZM1143.92,191.03l-37.7,37.69-36.41-37.69,36.41-36.41,37.7,36.41Z"/>
  <path class="cls-2" d="M1367.54,423.59v66.45h-12.78c-58.78,0-92-24.27-100.31-68.99l-37.69,68.36-51.12.63v-66.45h50.47c0,2.56,26.2-40.89,26.2-66.43V19.81l61.33-19.81v359.7c0,48.56,16.6,63.89,63.89,63.89Z"/>
  <path class="cls-2" d="M1694.65,376.95c0,70.28-44.72,120.13-123.95,120.13-48.56,0-92-28.12-119.47-66.45l-30.67,59.41h-59.42v-66.45h35.79c32.58-25.54,40.89-61.33,60.05-106.69,25.56-59.42,63.89-88.17,115.64-86.89l90.08.64,31.31,31.31.64,115ZM1651.85,371.2c-2.56-22.35-5.75-72.2-8.95-73.47-3.2-1.92-46.64-3.83-67.73-3.83-44.72,0-64.52,17.89-98.39,92.63,31.95,28.76,66.45,42.81,100.31,42.81,43.45,0,69.64-20.44,74.76-58.14Z"/>
</svg>